<?xml version="1.0" encoding="UTF-8" standalone="no"?>
<!-- Created with Inkscape (http://www.inkscape.org/) -->

<svg
   xmlns:dc="http://purl.org/dc/elements/1.1/"
   xmlns:cc="http://creativecommons.org/ns#"
   xmlns:rdf="http://www.w3.org/1999/02/22-rdf-syntax-ns#"
   xmlns:svg="http://www.w3.org/2000/svg"
   xmlns="http://www.w3.org/2000/svg"
   xmlns:sodipodi="http://sodipodi.sourceforge.net/DTD/sodipodi-0.dtd"
   xmlns:inkscape="http://www.inkscape.org/namespaces/inkscape"
   width="210mm"
   height="297mm"
   viewBox="0 0 210 297"
   version="1.1"
   id="svg8"
   inkscape:version="0.92.4 (5da689c313, 2019-01-14)"
   sodipodi:docname="rbslgamer4.svg">
  <defs
     id="defs2" />
  <sodipodi:namedview
     id="base"
     pagecolor="#ffffff"
     bordercolor="#666666"
     borderopacity="1.0"
     inkscape:pageopacity="0.0"
     inkscape:pageshadow="2"
     inkscape:zoom="0.23975339"
     inkscape:cx="295.27161"
     inkscape:cy="519.21761"
     inkscape:document-units="mm"
     inkscape:current-layer="layer1"
     showgrid="false"
     inkscape:snap-bbox="false"
     inkscape:snap-global="true"
     inkscape:snap-intersection-paths="false"
     inkscape:window-width="1366"
     inkscape:window-height="705"
     inkscape:window-x="-8"
     inkscape:window-y="-8"
     inkscape:window-maximized="1" />
  <metadata
     id="metadata5">
    <rdf:RDF>
      <cc:Work
         rdf:about="">
        <dc:format>image/svg+xml</dc:format>
        <dc:type
           rdf:resource="http://purl.org/dc/dcmitype/StillImage" />
        <dc:title></dc:title>
      </cc:Work>
    </rdf:RDF>
  </metadata>
  <g
     inkscape:label="Layer 1"
     inkscape:groupmode="layer"
     id="layer1"
     style="opacity:0.98000004">
    <path
       style="opacity:1;fill:#ffb380;fill-opacity:1;fill-rule:nonzero;stroke:#000000;stroke-width:0.34395835;stroke-linecap:round;stroke-linejoin:round;stroke-miterlimit:4;stroke-dasharray:none;stroke-dashoffset:2.99999952;stroke-opacity:1;paint-order:stroke fill markers"
       d="m 111.45511,79.146368 c -30.758662,0.03494 -57.397121,27.954302 -64.152604,67.237662 -0.256529,-0.0301 -0.513533,-0.0463 -0.770629,-0.0481 -6.76098,-2.6e-4 -12.241929,9.68246 -12.241985,21.62684 5.6e-5,11.94436 5.481005,21.62707 12.241985,21.62681 0.587578,-0.009 1.174037,-0.0924 1.754828,-0.25001 4.062521,18.31073 17.887835,33.46825 28.925583,44.39064 11.140389,11.02396 19.542199,17.72784 34.242822,17.73841 15.03242,-0.0253 24.5502,-9.51486 35.79141,-20.97134 11.19046,-11.40471 24.12986,-24.7334 27.8614,-43.7048 1.14159,0.61194 2.32769,0.92578 3.52065,0.93157 6.76099,2.5e-4 12.24194,-9.68245 12.24199,-21.62683 -5e-5,-11.94438 -5.481,-21.6271 -12.24199,-21.62682 -1.09527,0.007 -2.18496,0.27563 -3.23994,0.79572 -7.07651,-38.7349 -33.51037,-66.07269 -63.93352,-66.119767 z"
       id="path815"
       inkscape:connector-curvature="0"
       sodipodi:nodetypes="ccccccscscccccc" />
    <rect
       style="opacity:1;fill:#666666;fill-opacity:1;fill-rule:nonzero;stroke:#000000;stroke-width:0.34395835;stroke-linecap:round;stroke-linejoin:round;stroke-miterlimit:4;stroke-dasharray:none;stroke-dashoffset:2.99999952;stroke-opacity:1;paint-order:stroke fill markers"
       id="rect824"
       width="46.414711"
       height="28.90835"
       x="59.461212"
       y="146.95769"
       rx="1.7197915"
       ry="7.3705244" />
    <rect
       ry="7.3705239"
       rx="1.7197915"
       y="149.44444"
       x="63.412788"
       height="23.93487"
       width="38.511532"
       id="rect826"
       style="opacity:1;fill:#cccccc;fill-opacity:1;fill-rule:nonzero;stroke:#000000;stroke-width:0.34395826;stroke-linecap:round;stroke-linejoin:round;stroke-miterlimit:4;stroke-dasharray:none;stroke-dashoffset:2.99999952;stroke-opacity:1;paint-order:stroke fill markers" />
    <rect
       ry="7.3705244"
       rx="1.7197915"
       y="146.02515"
       x="122.23082"
       height="28.90835"
       width="46.414711"
       id="rect828"
       style="opacity:1;fill:#666666;fill-opacity:1;fill-rule:nonzero;stroke:#000000;stroke-width:0.34395835;stroke-linecap:round;stroke-linejoin:round;stroke-miterlimit:4;stroke-dasharray:none;stroke-dashoffset:2.99999952;stroke-opacity:1;paint-order:stroke fill markers" />
    <rect
       style="opacity:1;fill:#cccccc;fill-opacity:1;fill-rule:nonzero;stroke:#000000;stroke-width:0.34395826;stroke-linecap:round;stroke-linejoin:round;stroke-miterlimit:4;stroke-dasharray:none;stroke-dashoffset:2.99999952;stroke-opacity:1;paint-order:stroke fill markers"
       id="rect830"
       width="38.511532"
       height="23.93487"
       x="126.18242"
       y="148.51189"
       rx="1.7197915"
       ry="7.3705239" />
    <path
       style="fill:none;stroke:#000000;stroke-width:0.26458332px;stroke-linecap:butt;stroke-linejoin:miter;stroke-opacity:1"
       d="m 105.68792,190.25425 c 3.24345,3.01001 2.94185,6.61546 10.55949,8.8908 4.81642,-1.61355 5.02666,-4.74142 7.21113,-7.49168 -0.21975,0.0579 0.21972,-0.0683 0,0 -2.57922,0.80391 -5.15847,2.24192 -7.73768,1.89785 -4.63305,-0.23319 -6.68869,-2.19794 -10.03294,-3.29697 z"
       id="path832"
       inkscape:connector-curvature="0"
       sodipodi:nodetypes="cccscc" />
    <path
       style="fill:none;stroke:#000000;stroke-width:0.26458332px;stroke-linecap:butt;stroke-linejoin:miter;stroke-opacity:1"
       d="m 116.1412,169.64004 c 0,0 -4.12572,4.30594 1.92554,13.06454 l 6.05125,8.75856"
       id="path834"
       inkscape:connector-curvature="0"
       sodipodi:nodetypes="ccc" />
    <path
       style="fill:#000000;stroke:#000000;stroke-width:0.26458332px;stroke-linecap:butt;stroke-linejoin:miter;stroke-opacity:1"
       d="m 106.03719,158.76969 h 15.73095 l 0.1542,1.94277 h -16.03941 z"
       id="path836"
       inkscape:connector-curvature="0"
       sodipodi:nodetypes="ccccc" />
    <path
       style="fill:#ffffff;stroke:#000000;stroke-width:0;stroke-linecap:butt;stroke-linejoin:miter;stroke-miterlimit:4;stroke-dasharray:none;stroke-opacity:1"
       d="m 64.434966,169.3772 17.025902,-19.9371 c 0,0 2.483403,-0.007 4.283842,-0.0209 0.605098,-0.005 1.581343,-0.0164 1.83453,0.0247 0.04728,0.007 -0.02278,-0.0112 0.0034,0.009 0.05594,0.046 -0.0091,-0.009 -0.0091,-0.009 -0.07724,1.08795 -21.250306,23.46676 -21.250306,23.46676 l -0.567051,-0.56312 -0.76473,-1.30694 z"
       id="path854"
       inkscape:connector-curvature="0"
       sodipodi:nodetypes="ccsssccccc" />
    <path
       style="fill:#ffffff;stroke:#000000;stroke-width:0;stroke-linecap:butt;stroke-linejoin:miter;stroke-miterlimit:4;stroke-dasharray:none;stroke-opacity:1"
       d="m 67.808637,173.35987 21.784306,-23.91547 2.390476,3e-5 -21.938515,23.93484 z"
       id="path864"
       inkscape:connector-curvature="0"
       sodipodi:nodetypes="ccccc" />
    <path
       sodipodi:nodetypes="ccsssccccc"
       inkscape:connector-curvature="0"
       id="path866"
       d="m 127.26685,168.44468 17.0259,-19.9371 c 0,0 2.48342,-0.007 4.28382,-0.0209 0.60511,-0.005 1.58135,-0.0162 1.83455,0.0247 0.0473,0.007 -0.023,-0.0112 0.006,0.009 0.0558,0.046 -0.009,-0.009 -0.009,-0.009 -0.077,1.08794 -21.25029,23.46676 -21.25029,23.46676 l -0.56708,-0.56311 -0.76471,-1.30694 z"
       style="fill:#ffffff;stroke:#000000;stroke-width:0;stroke-linecap:butt;stroke-linejoin:miter;stroke-miterlimit:4;stroke-dasharray:none;stroke-opacity:1" />
    <path
       sodipodi:nodetypes="ccccc"
       inkscape:connector-curvature="0"
       id="path868"
       d="m 130.64052,172.42734 21.78429,-23.91544 2.3905,1e-5 -21.93853,23.93486 z"
       style="fill:#ffffff;stroke:#000000;stroke-width:0;stroke-linecap:butt;stroke-linejoin:miter;stroke-miterlimit:4;stroke-dasharray:none;stroke-opacity:1" />
    <path
       style="fill:#000000;stroke:#000000;stroke-width:0.26458332px;stroke-linecap:butt;stroke-linejoin:miter;stroke-opacity:1"
       d="m 89.298869,212.62663 16.773411,0.0815 15.09818,0.14211 9.8774,-0.10142 5.91332,-0.20608 c -0.98009,3.23745 -2.62921,5.00816 -5.79486,8.14325 l -3.23573,2.75886 v 0 l -2.52795,0.98843 -4.10697,0.8393 -10.3669,0.23493 -5.85318,-0.25934 c -8.794753,-0.62181 -13.18216,-7.0764 -13.18216,-7.0764 -1.184512,-1.71303 -2.518277,-2.76383 -2.594561,-5.54507 z"
       id="path876"
       inkscape:connector-curvature="0"
       sodipodi:nodetypes="cccccccccccccc" />
    <path
       style="fill:#f9f9f9;stroke:#000000;stroke-width:0;stroke-linecap:butt;stroke-linejoin:miter;stroke-miterlimit:4;stroke-dasharray:none;stroke-opacity:1"
       d="m 90.716551,212.35188 1.636156,2.13545 4.27675,1.08885 35.704963,-0.0805 c 2.43965,-0.48191 2.8379,-1.76486 3.42717,-3.28272 z"
       id="path878"
       inkscape:connector-curvature="0"
       sodipodi:nodetypes="cccccc" />
    <path
       style="fill:#00ff00;stroke:#000000;stroke-width:0.26458332px;stroke-linecap:butt;stroke-linejoin:miter;stroke-opacity:1"
       d="m 99.362817,127.84126 -9.59673,46.14221 -6.106999,-48.20212 -9.160504,33.7827 0.436217,-32.95874 c 0,0 -25.530554,33.36263 -20.502087,40.37445 5.028478,7.01178 -7.130224,-20.61827 -7.130224,-20.61827 l -16.425357,26.38604 1.308644,14.41944 -12.650223,-18.53927 1.265624,-10.41637 1.787878,-14.71465 -11.958472,6.79941 c 1.642278,-13.58912 -16.8074105,-16.49481 -8.1434897,-21.07799 5.8939142,-3.11785 7.0323982,-8.77446 15.4661297,-8.63475 l -4.829358,-30.331038 19.93434,-4.021433 21.438715,-31.895363 49.078229,-19.619768 78.69191,45.071756 2.15757,20.450826 c 0.18443,1.74856 14.39509,43.25835 14.39509,43.25835 l -5.23458,41.61037 -10.46913,11.53558 0.43622,-33.78271 -14.90672,10.25765 -15.1921,-46.10026 -1.30865,30.89879 -24.86421,-42.02236 -5.04974,30.13141 -16.32477,-38.37108 z"
       id="path837"
       inkscape:connector-curvature="0"
       sodipodi:nodetypes="cccccccccccccsccccccsccccccccccc" />
  </g>
</svg>
